<svg width="16" height="16" viewBox="0 0 16 16" fill="none" xmlns="http://www.w3.org/2000/svg">
<path d="M10.7833 7.33338L7.51667 4.06672C7.38334 3.93338 7.31934 3.77783 7.32467 3.60005C7.33001 3.42227 7.39956 3.26672 7.53334 3.13338C7.66667 3.01116 7.82223 2.94716 8.00001 2.94138C8.17778 2.93561 8.33334 2.99961 8.46667 3.13338L12.8667 7.53338C12.9333 7.60005 12.9807 7.67227 13.0087 7.75005C13.0367 7.82783 13.0502 7.91116 13.0493 8.00005C13.0484 8.08894 13.0345 8.17227 13.0073 8.25005C12.9802 8.32783 12.9331 8.40005 12.866 8.46672L8.466 12.8667C8.34378 12.9889 8.19089 13.05 8.00734 13.05C7.82378 13.05 7.66556 12.9889 7.53267 12.8667C7.39934 12.7334 7.33267 12.5749 7.33267 12.3914C7.33267 12.2078 7.39934 12.0496 7.53267 11.9167L10.7833 8.66672L3.33334 8.66672C3.14445 8.66672 2.986 8.60272 2.858 8.47472C2.73 8.34672 2.66623 8.18849 2.66667 8.00005C2.66712 7.8116 2.73112 7.65316 2.85867 7.52472C2.98623 7.39627 3.14445 7.33249 3.33334 7.33338L10.7833 7.33338Z" fill="black"/>
</svg>
